<?xml version="1.0" standalone="no"?>
<!DOCTYPE svg PUBLIC "-//W3C//DTD SVG 20010904//EN"
 "http://www.w3.org/TR/2001/REC-SVG-20010904/DTD/svg10.dtd">
<svg version="1.0" xmlns="http://www.w3.org/2000/svg"
 width="512.000000pt" height="512.000000pt" viewBox="0 0 512.000000 512.000000"
 preserveAspectRatio="xMidYMid meet">
<metadata>
Created by potrace 1.14, written by Peter Selinger 2001-2017
</metadata>
<g transform="translate(0.000000,512.000000) scale(0.100000,-0.100000)"
fill="#000000" stroke="none">
<path d="M393 5106 c-183 -45 -344 -210 -382 -394 -16 -75 -16 -4229 0 -4304
39 -189 208 -358 397 -397 75 -16 4229 -16 4304 0 189 39 358 208 397 397 16
75 16 4229 0 4304 -39 189 -208 358 -397 397 -81 17 -4248 14 -4319 -3z m1907
-918 c50 -26 84 -76 94 -141 l7 -40 122 7 c233 13 487 49 880 126 111 22 207
40 214 40 37 0 41 -239 6 -334 -39 -107 -160 -202 -308 -242 -140 -38 -514
-27 -775 23 -74 14 -146 26 -159 27 -23 1 -24 -1 -109 -507 -47 -279 -83 -510
-80 -513 11 -10 193 -23 330 -24 123 0 152 4 288 36 83 20 154 34 156 31 3 -3
5 -43 5 -88 1 -110 -25 -182 -85 -237 -55 -51 -89 -68 -168 -87 -112 -26 -325
-14 -514 30 -37 8 -68 14 -69 13 -4 -5 -85 -590 -94 -683 -10 -88 -14 -192
-12 -248 l1 -28 493 4 c460 3 498 5 588 25 82 19 203 54 260 77 27 10 53 -82
54 -186 0 -76 -3 -92 -30 -144 -73 -143 -232 -202 -570 -212 -221 -6 -387 10
-575 58 l-115 29 -83 -36 c-189 -81 -375 -80 -472 4 -85 72 -106 160 -97 401
12 297 53 609 231 1731 l103 655 -68 137 -69 137 74 41 c225 124 441 170 546
118z"/>
</g>
</svg>
